<svg id="visual" viewBox="0 0 1400 1000" width="1400" height="1000" xmlns="http://www.w3.org/2000/svg" xmlns:xlink="http://www.w3.org/1999/xlink" version="1.1"><path d="M0 715L10.7 739.3C21.3 763.7 42.7 812.3 63.8 816.7C85 821 106 781 127.2 785.7C148.3 790.3 169.7 839.7 191 853.8C212.3 868 233.7 847 254.8 822.7C276 798.3 297 770.7 318.2 753.5C339.3 736.3 360.7 729.7 381.8 727.8C403 726 424 729 445.2 742.8C466.3 756.7 487.7 781.3 509 785.8C530.3 790.3 551.7 774.7 572.8 757C594 739.3 615 719.7 636.2 728.5C657.3 737.3 678.7 774.7 700 790.3C721.3 806 742.7 800 763.8 806.5C785 813 806 832 827.2 839.2C848.3 846.3 869.7 841.7 891 833.5C912.3 825.3 933.7 813.7 954.8 816.7C976 819.7 997 837.3 1018.2 852C1039.3 866.7 1060.7 878.3 1081.8 884.5C1103 890.7 1124 891.3 1145.2 879.7C1166.3 868 1187.7 844 1209 841.8C1230.3 839.7 1251.7 859.3 1272.8 868.2C1294 877 1315 875 1336.2 850.8C1357.3 826.7 1378.7 780.3 1389.3 757.2L1400 734L1400 1001L1389.3 1001C1378.7 1001 1357.3 1001 1336.2 1001C1315 1001 1294 1001 1272.8 1001C1251.7 1001 1230.3 1001 1209 1001C1187.7 1001 1166.3 1001 1145.2 1001C1124 1001 1103 1001 1081.8 1001C1060.7 1001 1039.3 1001 1018.2 1001C997 1001 976 1001 954.8 1001C933.7 1001 912.3 1001 891 1001C869.7 1001 848.3 1001 827.2 1001C806 1001 785 1001 763.8 1001C742.7 1001 721.3 1001 700 1001C678.7 1001 657.3 1001 636.2 1001C615 1001 594 1001 572.8 1001C551.7 1001 530.3 1001 509 1001C487.7 1001 466.3 1001 445.2 1001C424 1001 403 1001 381.8 1001C360.7 1001 339.3 1001 318.2 1001C297 1001 276 1001 254.8 1001C233.7 1001 212.3 1001 191 1001C169.7 1001 148.3 1001 127.2 1001C106 1001 85 1001 63.8 1001C42.7 1001 21.3 1001 10.7 1001L0 1001Z" fill="#9026c8" stroke-linecap="round" stroke-linejoin="miter"></path></svg>